<?xml version="1.0" standalone="no"?>
<!DOCTYPE svg PUBLIC "-//W3C//DTD SVG 1.1//EN" "http://www.w3.org/Graphics/SVG/1.1/DTD/svg11.dtd" >
<svg xmlns="http://www.w3.org/2000/svg">
<metadata>Generated by IcoMoon</metadata>
<defs>
<font id="leaflet-multi-maps" horiz-adv-x="1024">
<font-face units-per-em="1024" ascent="960" descent="-64" />
<missing-glyph horiz-adv-x="1024" />
<glyph unicode="&#x20;" horiz-adv-x="512" d="" />
<glyph unicode="&#xe900;" glyph-name="1" d="M81.92 775.68v-655.36h860.16v655.36h-860.16zM122.88 734.72h778.24v-573.44h-778.24v573.44z" />
<glyph unicode="&#xe901;" glyph-name="1-1" d="M81.92 775.68v-655.36h860.16v655.36h-860.16zM122.88 734.72h778.24v-573.44h-778.24v573.44zM81.92 775.68v-655.36h450.56v655.36h-450.56zM122.88 734.72h368.64v-573.44h-368.64v573.44z" />
<glyph unicode="&#xe902;" glyph-name="1-1-1" d="M81.92 775.68v-655.36h860.16v655.36h-860.16zM122.88 734.72h778.24v-573.44h-778.24v573.44zM81.92 775.68v-655.36h313.344v655.36h-313.344zM122.88 734.72h231.424v-573.44h-231.424v573.44zM628.736 775.68v-655.36h313.344v655.36h-313.344zM669.696 734.72h231.424v-573.44h-231.424v573.44z" />
<glyph unicode="&#xe903;" glyph-name="2-1" d="M81.92 775.68v-655.36h860.16v655.36h-860.16zM122.88 734.72h778.24v-573.44h-778.24v573.44zM81.92 775.68v-348.16h313.344v348.16h-313.344zM122.88 734.72h231.424v-266.24h-231.424v266.24zM81.92 468.48v-348.16h313.344v348.16h-313.344zM122.88 427.52h231.424v-266.24h-231.424v266.24z" />
<glyph unicode="&#xe904;" glyph-name="2-1-1" d="M81.92 775.68v-655.36h860.16v655.36h-860.16zM122.88 734.72h778.24v-573.44h-778.24v573.44zM245.76 775.68v-655.36h368.64v655.36h-368.64zM286.72 734.72h286.72v-573.44h-286.72v573.44zM81.92 468.48v-348.16h204.8v348.16h-204.8zM122.88 427.52h122.88v-266.24h-122.88v266.24zM81.92 775.68v-348.16h204.8v348.16h-204.8zM122.88 734.72h122.88v-266.24h-122.88v266.24z" />
<glyph unicode="&#xe905;" glyph-name="2-1-2" d="M81.92 775.68v-655.36h860.16v655.36h-860.16zM122.88 734.72h778.24v-573.44h-778.24v573.44zM81.92 468.48v-348.16h245.76v348.16h-245.76zM122.88 427.52h163.84v-266.24h-163.84v266.24zM81.92 775.68v-348.16h245.76v348.16h-245.76zM122.88 734.72h163.84v-266.24h-163.84v266.24zM696.32 775.68v-348.16h245.76v348.16h-245.76zM737.28 734.72h163.84v-266.24h-163.84v266.24zM696.32 468.48v-348.16h245.76v348.16h-245.76zM737.28 427.52h163.84v-266.24h-163.84v266.24z" />
<glyph unicode="&#xe906;" glyph-name="2-2" d="M81.92 775.68v-655.36h860.16v655.36h-860.16zM122.88 734.72h778.24v-573.44h-778.24v573.44zM491.52 775.68v-348.16h450.56v348.16h-450.56zM532.48 734.72h368.64v-266.24h-368.64v266.24zM81.92 468.48v-348.16h450.56v348.16h-450.56zM122.88 427.52h368.64v-266.24h-368.64v266.24z" />
<glyph unicode="&#xe907;" glyph-name="3-1" d="M81.92 775.68v-655.36h860.16v655.36h-860.16zM122.88 734.72h778.24v-573.44h-778.24v573.44zM81.92 775.68v-245.76h245.76v245.76h-245.76zM122.88 734.72h163.84v-163.84h-163.84v163.84zM81.92 570.88v-245.76h245.76v245.76h-245.76zM122.88 529.92h163.84v-163.84h-163.84v163.84zM81.92 366.080v-245.76h245.76v245.76h-245.76zM122.88 325.12h163.84v-163.84h-163.84v163.84z" />
<glyph unicode="&#xe908;" glyph-name="1-p" d="M839.68 878.080h-655.36v-860.16h655.36v860.16zM798.72 837.12v-778.24h-573.44v778.24h573.44z" />
<glyph unicode="&#xe909;" glyph-name="1-1-p" d="M839.68 878.080h-655.36v-860.16h655.36v860.16zM798.72 837.12v-778.24h-573.44v778.24h573.44zM839.68 878.080h-655.36v-450.56h655.36v450.56zM798.72 837.12v-368.64h-573.44v368.64h573.44z" />
<glyph unicode="&#xe90a;" glyph-name="1-1-1-p" d="M839.68 878.080h-655.36v-860.16h655.36v860.16zM798.72 837.12v-778.24h-573.44v778.24h573.44zM839.68 878.080h-655.36v-313.344h655.36v313.344zM798.72 837.12v-231.424h-573.44v231.424h573.44zM839.68 331.264h-655.36v-313.344h655.36v313.344zM798.72 290.304v-231.424h-573.44v231.424h573.44z" />
<glyph unicode="&#xe90b;" glyph-name="1-2" d="M942.080 775.68v-655.36h-860.16v655.36h860.16zM901.12 734.72h-778.24v-573.44h778.24v573.44zM942.080 775.68v-348.16h-313.344v348.16h313.344zM901.12 734.72h-231.424v-266.24h231.424v266.24zM942.080 468.48v-348.16h-313.344v348.16h313.344zM901.12 427.52h-231.424v-266.24h231.424v266.24z" />
<glyph unicode="&#xe90c;" glyph-name="1-2-p" d="M839.68 17.92h-655.36v860.16h655.36v-860.16zM798.72 58.88v778.24h-573.44v-778.24h573.44zM839.68 17.92h-348.16v313.344h348.16v-313.344zM798.72 58.88v231.424h-266.24v-231.424h266.24zM532.48 17.92h-348.16v313.344h348.16v-313.344zM491.52 58.88v231.424h-266.24v-231.424h266.24z" />
<glyph unicode="&#xe90d;" glyph-name="2-1-p" d="M839.68 878.080h-655.36v-860.16h655.36v860.16zM798.72 837.12v-778.24h-573.44v778.24h573.44zM839.68 878.080h-348.16v-313.344h348.16v313.344zM798.72 837.12v-231.424h-266.24v231.424h266.24zM532.48 878.080h-348.16v-313.344h348.16v313.344zM491.52 837.12v-231.424h-266.24v231.424h266.24z" />
<glyph unicode="&#xe90e;" glyph-name="1-1-2" d="M942.080 775.68v-655.36h-860.16v655.36h860.16zM901.12 734.72h-778.24v-573.44h778.24v573.44zM778.24 775.68v-655.36h-368.64v655.36h368.64zM737.28 734.72h-286.72v-573.44h286.72v573.44zM942.080 468.48v-348.16h-204.8v348.16h204.8zM901.12 427.52h-122.88v-266.24h122.88v266.24zM942.080 775.68v-348.16h-204.8v348.16h204.8zM901.12 734.72h-122.88v-266.24h122.88v266.24z" />
<glyph unicode="&#xe90f;" glyph-name="1-1-2-p" d="M839.68 17.92h-655.36v860.16h655.36v-860.16zM798.72 58.88v778.24h-573.44v-778.24h573.44zM839.68 181.76h-655.36v368.64h655.36v-368.64zM798.72 222.72v286.72h-573.44v-286.72h573.44zM532.48 17.92h-348.16v204.8h348.16v-204.8zM491.52 58.88v122.88h-266.24v-122.88h266.24zM839.68 17.92h-348.16v204.8h348.16v-204.8zM798.72 58.88v122.88h-266.24v-122.88h266.24z" />
<glyph unicode="&#xe910;" glyph-name="2-1-1-p" d="M839.68 878.080h-655.36v-860.16h655.36v860.16zM798.72 837.12v-778.24h-573.44v778.24h573.44zM839.68 714.24h-655.36v-368.64h655.36v368.64zM798.72 673.28v-286.72h-573.44v286.72h573.44zM532.48 878.080h-348.16v-204.8h348.16v204.8zM491.52 837.12v-122.88h-266.24v122.88h266.24zM839.68 878.080h-348.16v-204.8h348.16v204.8zM798.72 837.12v-122.88h-266.24v122.88h266.24z" />
<glyph unicode="&#xe911;" glyph-name="2-1-2-p" d="M839.68 878.080h-655.36v-860.16h655.36v860.16zM798.72 837.12v-778.24h-573.44v778.24h573.44zM532.48 878.080h-348.16v-245.76h348.16v245.76zM491.52 837.12v-163.84h-266.24v163.84h266.24zM839.68 878.080h-348.16v-245.76h348.16v245.76zM798.72 837.12v-163.84h-266.24v163.84h266.24zM839.68 263.68h-348.16v-245.76h348.16v245.76zM798.72 222.72v-163.84h-266.24v163.84h266.24zM532.48 263.68h-348.16v-245.76h348.16v245.76zM491.52 222.72v-163.84h-266.24v163.84h266.24z" />
<glyph unicode="&#xe912;" glyph-name="2-2-p" d="M839.68 878.080h-655.36v-860.16h655.36v860.16zM798.72 837.12v-778.24h-573.44v778.24h573.44zM839.68 468.48h-348.16v-450.56h348.16v450.56zM798.72 427.52v-368.64h-266.24v368.64h266.24zM532.48 878.080h-348.16v-450.56h348.16v450.56zM491.52 837.12v-368.64h-266.24v368.64h266.24z" />
<glyph unicode="&#xe913;" glyph-name="1-3" d="M942.080 775.68v-655.36h-860.16v655.36h860.16zM901.12 734.72h-778.24v-573.44h778.24v573.44zM942.080 775.68v-245.76h-245.76v245.76h245.76zM901.12 734.72h-163.84v-163.84h163.84v163.84zM942.080 570.88v-245.76h-245.76v245.76h245.76zM901.12 529.92h-163.84v-163.84h163.84v163.84zM942.080 366.080v-245.76h-245.76v245.76h245.76zM901.12 325.12h-163.84v-163.84h163.84v163.84z" />
<glyph unicode="&#xe914;" glyph-name="1-3-p" d="M839.68 17.92h-655.36v860.16h655.36v-860.16zM798.72 58.88v778.24h-573.44v-778.24h573.44zM839.68 17.92h-245.76v245.76h245.76v-245.76zM798.72 58.88v163.84h-163.84v-163.84h163.84zM634.88 17.92h-245.76v245.76h245.76v-245.76zM593.92 58.88v163.84h-163.84v-163.84h163.84zM430.080 17.92h-245.76v245.76h245.76v-245.76zM389.12 58.88v163.84h-163.84v-163.84h163.84z" />
<glyph unicode="&#xe915;" glyph-name="3-1-p" d="M839.68 878.080h-655.36v-860.16h655.36v860.16zM798.72 837.12v-778.24h-573.44v778.24h573.44zM839.68 878.080h-245.76v-245.76h245.76v245.76zM798.72 837.12v-163.84h-163.84v163.84h163.84zM634.88 878.080h-245.76v-245.76h245.76v245.76zM593.92 837.12v-163.84h-163.84v163.84h163.84zM430.080 878.080h-245.76v-245.76h245.76v245.76zM389.12 837.12v-163.84h-163.84v163.84h163.84z" />
<glyph unicode="&#xe916;" glyph-name="3-1-1" d="M81.92 775.68v-655.36h860.16v655.36h-860.16zM122.88 734.72h778.24v-573.44h-778.24v573.44zM942.080 775.68v-655.36h-860.16v655.36zM122.88 161.28h778.24v573.44h-778.24zM239.616 775.68v-245.76h-157.696v245.76zM122.88 570.88h75.776v163.84h-75.776zM239.616 366.080v-245.76h-157.696v245.76zM122.88 161.28h75.776v163.84h-75.776zM239.616 571.795v-245.76h-157.696v245.76zM122.88 366.995h75.776v163.84h-75.776zM591.497 774.547v-655.36h-391.168v655.36zM241.289 160.147h309.248v573.44h-309.248zM940.032 775.68v-655.36h-391.168v655.36zM589.824 161.28h309.248v573.44h-309.248z" />
<glyph unicode="&#xe917;" glyph-name="1-1-3-p" d="M184.32 17.92h655.36v860.16h-655.36v-860.16zM225.28 58.88v778.24h573.44v-778.24h-573.44zM184.32 878.080h655.36v-860.16h-655.36zM798.72 58.88v778.24h-573.44v-778.24zM184.32 175.616h245.76v-157.696h-245.76zM389.12 58.88v75.776h-163.84v-75.776zM593.92 175.616h245.76v-157.696h-245.76zM798.72 58.88v75.776h-163.84v-75.776zM388.205 175.616h245.76v-157.696h-245.76zM593.005 58.88v75.776h-163.84v-75.776zM185.453 527.497h655.36v-391.168h-655.36zM799.853 177.289v309.248h-573.44v-309.248zM184.32 876.032h655.36v-391.168h-655.36zM798.72 525.824v309.248h-573.44v-309.248z" />
<glyph unicode="&#xe918;" glyph-name="3-1-1-p" d="M839.68 878.080h-655.36v-860.16h655.36v860.16zM798.72 837.12v-778.24h-573.44v778.24h573.44zM839.68 17.92h-655.36v860.16h655.36zM225.28 837.12v-778.24h573.44v778.24zM839.68 720.384h-245.76v157.696h245.76zM634.88 837.12v-75.776h163.84v75.776zM430.080 720.384h-245.76v157.696h245.76zM225.28 837.12v-75.776h163.84v75.776zM635.795 720.384h-245.76v157.696h245.76zM430.995 837.12v-75.776h163.84v75.776zM838.547 368.503h-655.36v391.168h655.36zM224.147 718.711v-309.248h573.44v309.248zM839.68 19.968h-655.36v391.168h655.36zM225.28 370.176v-309.248h573.44v309.248z" />
<glyph unicode="&#xe919;" glyph-name="1-1-3" d="M942.080 120.32v655.36h-860.16v-655.36h860.16zM901.12 161.28h-778.24v573.44h778.24v-573.44zM81.92 120.32v655.36h860.16v-655.36zM901.12 734.72h-778.24v-573.44h778.24zM784.384 120.32v245.76h157.696v-245.76zM901.12 325.12h-75.776v-163.84h75.776zM784.384 529.92v245.76h157.696v-245.76zM901.12 734.72h-75.776v-163.84h75.776zM784.384 324.205v245.76h157.696v-245.76zM901.12 529.005h-75.776v-163.84h75.776zM432.503 121.453v655.36h391.168v-655.36zM782.711 735.853h-309.248v-573.44h309.248zM83.968 120.32v655.36h391.168v-655.36zM434.176 734.72h-309.248v-573.44h309.248z" />
<glyph unicode="&#xe91a;" glyph-name="4-1-p" d="M839.68 878.080h-655.36v-860.16h655.36v860.16zM798.72 837.12v-778.24h-573.44v778.24h573.44zM839.68 17.92h-655.36v860.16h655.36zM225.28 837.12v-778.24h573.44v778.24zM839.68 673.28h-194.56v204.8h194.56zM686.080 837.12v-122.88h112.64v122.88zM378.88 673.28h-194.56v204.8h194.56zM225.28 837.12v-122.88h112.64v122.88zM532.48 673.28h-194.56v204.8h194.56zM378.88 837.12v-122.88h112.64v122.88zM686.080 673.28h-194.56v204.8h194.56zM532.48 837.12v-122.88h112.64v122.88zM839.68 17.92h-655.36v696.32h655.36zM225.28 673.28v-614.4h573.44v614.4z" />
<glyph unicode="&#xe91b;" glyph-name="1-4-p" d="M839.68 17.92h-655.36v860.16h655.36v-860.16zM798.72 58.88v778.24h-573.44v-778.24h573.44zM839.68 878.080h-655.36v-860.16h655.36zM225.28 58.88v778.24h573.44v-778.24zM839.68 222.72h-194.56v-204.8h194.56zM686.080 58.88v122.88h112.64v-122.88zM378.88 222.72h-194.56v-204.8h194.56zM225.28 58.88v122.88h112.64v-122.88zM532.48 222.72h-194.56v-204.8h194.56zM378.88 58.88v122.88h112.64v-122.88zM686.080 222.72h-194.56v-204.8h194.56zM532.48 58.88v122.88h112.64v-122.88zM839.68 878.080h-655.36v-696.32h655.36zM225.28 222.72v614.4h573.44v-614.4z" />
<glyph unicode="&#xe91c;" glyph-name="1-4" d="M942.080 775.68v-655.36h-860.16v655.36h860.16zM901.12 734.72h-778.24v-573.44h778.24v573.44zM81.92 775.68v-655.36h860.16v655.36zM901.12 161.28h-778.24v573.44h778.24zM737.28 775.68v-194.56h204.8v194.56zM901.12 622.080h-122.88v112.64h122.88zM737.28 314.88v-194.56h204.8v194.56zM901.12 161.28h-122.88v112.64h122.88zM737.28 468.48v-194.56h204.8v194.56zM901.12 314.88h-122.88v112.64h122.88zM737.28 622.080v-194.56h204.8v194.56zM901.12 468.48h-122.88v112.64h122.88zM81.92 775.68v-655.36h696.32v655.36zM737.28 161.28h-614.4v573.44h614.4z" />
<glyph unicode="&#xe91d;" glyph-name="4-1" d="M81.92 775.68v-655.36h860.16v655.36h-860.16zM122.88 734.72h778.24v-573.44h-778.24v573.44zM942.080 775.68v-655.36h-860.16v655.36zM122.88 161.28h778.24v573.44h-778.24zM286.72 775.68v-194.56h-204.8v194.56zM122.88 622.080h122.88v112.64h-122.88zM286.72 314.88v-194.56h-204.8v194.56zM122.88 161.28h122.88v112.64h-122.88zM286.72 468.48v-194.56h-204.8v194.56zM122.88 314.88h122.88v112.64h-122.88zM286.72 622.080v-194.56h-204.8v194.56zM122.88 468.48h122.88v112.64h-122.88zM942.080 775.68v-655.36h-696.32v655.36zM286.72 161.28h614.4v573.44h-614.4z" />
<glyph unicode="&#xe91e;" glyph-name="2-3-p" d="M839.68 17.92h-655.36v860.16h655.36v-860.16zM798.72 58.88v778.24h-573.44v-778.24h573.44zM839.68 878.080h-655.36v-860.16h655.36zM225.28 58.88v778.24h573.44v-778.24zM839.68 331.264h-245.76v-313.344h245.76zM634.88 58.88v231.424h163.84v-231.424zM430.080 331.264h-245.76v-313.344h245.76zM225.28 58.88v231.424h163.84v-231.424zM635.795 38.4v0zM430.995 38.4v0h163.84zM839.68 878.080h-348.16v-587.776h348.16zM532.48 331.264v505.856h266.24v-505.856zM634.88 331.264h-245.76v-313.344h245.76zM430.080 58.88v231.424h163.84v-231.424zM533.142 878.217h-348.16v-587.776h348.16zM225.942 331.401v505.856h266.24v-505.856zM532.933 879.192h-348.16v-587.776h348.16zM225.733 332.376v505.856h266.24v-505.856z" />
<glyph unicode="&#xe91f;" glyph-name="2-3" d="M942.080 775.68v-655.36h-860.16v655.36h860.16zM901.12 734.72h-778.24v-573.44h778.24v573.44zM81.92 775.68v-655.36h860.16v655.36zM901.12 161.28h-778.24v573.44h778.24zM628.736 775.68v-245.76h313.344v245.76zM901.12 570.88h-231.424v163.84h231.424zM628.736 366.080v-245.76h313.344v245.76zM901.12 161.28h-231.424v163.84h231.424zM921.6 571.795v0zM921.6 366.995v0 163.84zM81.92 775.68v-348.16h587.776v348.16zM628.736 468.48h-505.856v266.24h505.856zM628.736 570.88v-245.76h313.344v245.76zM901.12 366.080h-231.424v163.84h231.424zM81.783 469.142v-348.16h587.776v348.16zM628.599 161.942h-505.856v266.24h505.856zM80.808 468.933v-348.16h587.776v348.16zM627.624 161.733h-505.856v266.24h505.856z" />
<glyph unicode="&#xe920;" glyph-name="3-2" d="M81.92 775.68v-655.36h860.16v655.36h-860.16zM122.88 734.72h778.24v-573.44h-778.24v573.44zM942.080 775.68v-655.36h-860.16v655.36zM122.88 161.28h778.24v573.44h-778.24zM395.264 775.68v-245.76h-313.344v245.76zM122.88 570.88h231.424v163.84h-231.424zM395.264 366.080v-245.76h-313.344v245.76zM122.88 161.28h231.424v163.84h-231.424zM102.4 571.795v0zM102.4 366.995v0 163.84zM942.080 775.68v-348.16h-587.776v348.16zM395.264 468.48h505.856v266.24h-505.856zM395.264 570.88v-245.76h-313.344v245.76zM122.88 366.080h231.424v163.84h-231.424zM942.217 469.142v-348.16h-587.776v348.16zM395.401 161.942h505.856v266.24h-505.856zM943.192 468.933v-348.16h-587.776v348.16zM396.376 161.733h505.856v266.24h-505.856z" />
<glyph unicode="&#xe922;" glyph-name="3-2-p" d="M839.68 878.080h-655.36v-860.16h655.36v860.16zM798.72 837.12v-778.24h-573.44v778.24h573.44zM839.68 17.92h-655.36v860.16h655.36zM225.28 837.12v-778.24h573.44v778.24zM839.68 564.736h-245.76v313.344h245.76zM634.88 837.12v-231.424h163.84v231.424zM430.080 564.736h-245.76v313.344h245.76zM225.28 837.12v-231.424h163.84v231.424zM635.795 857.6v0zM430.995 857.6v0h163.84zM839.68 17.92h-348.16v587.776h348.16zM532.48 564.736v-505.856h266.24v505.856zM634.88 564.736h-245.76v313.344h245.76zM430.080 837.12v-231.424h163.84v231.424zM533.142 17.783h-348.16v587.776h348.16zM225.942 564.599v-505.856h266.24v505.856zM532.933 16.808h-348.16v587.776h348.16zM225.733 563.624v-505.856h266.24v505.856z" />
</font>
</defs>
</svg>
